<svg xmlns="http://www.w3.org/2000/svg" enable-background="new 0 0 512 512" viewBox="0 0 512 512"><path fill="#a79ba7" fill-rule="evenodd" d="M472.157,483.813h-81.761c-4.418,0-8-3.582-8-8c0-4.418,3.582-8,8-8h81.761l-12.703-9.92
		c-3.469-2.709-4.084-7.719-1.375-11.188c2.709-3.469,7.718-4.084,11.188-1.375l30.872,24.108c0.548,0.412,1.051,0.902,1.494,1.468
		c2.709,3.469,2.094,8.478-1.375,11.188l-30.991,24.202c-3.469,2.709-8.478,2.094-11.188-1.375
		c-2.709-3.469-2.094-8.478,1.375-11.188L472.157,483.813L472.157,483.813z M123.492,421.67
		c-45.671-38.064-71.815-93.871-71.815-153.32c0-110.161,89.302-199.463,199.463-199.463s199.463,89.302,199.463,199.463
		S361.302,467.813,251.14,467.813H16.678c-4.418,0-8,3.582-8,8c0,4.418,3.582,8,8,8H251.14
		c118.995,0,215.463-96.468,215.463-215.463S370.135,52.887,251.14,52.887S35.677,149.355,35.677,268.35
		c0,64.12,28.38,124.525,77.627,165.569c3.383,2.813,8.405,2.351,11.218-1.031C127.336,429.506,126.874,424.483,123.492,421.67z" clip-rule="evenodd"/><path fill="#ffe177" fill-rule="evenodd" d="M278.74,152.728c12.238,2.913,23.927,7.765,34.639,14.361l22.509-9.997l26.529,26.528l-9.994,22.502
			c6.598,10.714,11.45,22.408,14.363,34.649l22.965,8.839v37.517l-22.97,8.842c-2.913,12.238-7.765,23.927-14.361,34.639
			l9.997,22.509l-26.529,26.529l-22.502-9.994c-10.714,6.598-22.408,11.45-34.649,14.363l-8.839,22.965h-37.517l-8.842-22.97
			c-12.239-2.913-23.927-7.765-34.639-14.361l-22.509,9.997l-26.529-26.528l9.994-22.502c-6.598-10.714-11.45-22.408-14.363-34.649
			l-22.965-8.839v-37.517l22.968-8.841c2.912-12.239,7.764-23.93,14.361-34.642l-9.995-22.507l26.528-26.529l22.509,9.997
			c10.712-6.596,22.401-11.448,34.64-14.361l8.842-22.97h37.517L278.74,152.728L278.74,152.728z M251.14,197.22
			c-39.298,0-71.149,31.851-71.149,71.149c0,39.298,31.851,71.149,71.149,71.149c39.298,0,71.149-31.851,71.149-71.149
			C322.289,229.071,290.439,197.22,251.14,197.22z" clip-rule="evenodd"/><path fill="#ffd064" fill-rule="evenodd" d="M278.74,152.728c12.238,2.913,23.927,7.765,34.639,14.361l22.509-9.997l26.529,26.529l-9.994,22.502
			c6.598,10.714,11.45,22.408,14.363,34.649l22.964,8.839v37.518l-22.97,8.842c-2.913,12.238-7.765,23.927-14.361,34.639
			l9.997,22.508l-26.528,26.53l-22.502-9.994c-10.714,6.598-22.408,11.45-34.649,14.363l-8.839,22.965H251.14v-67.462h0
			c39.298,0,71.149-31.851,71.149-71.149c0-39.298-31.851-71.149-71.149-71.149h0v-67.462h18.759L278.74,152.728z" clip-rule="evenodd"/><path fill="#8ac9fe" fill-rule="evenodd" d="M214.374,4.015h73.533c5.28,0,9.599,4.319,9.599,9.599v73.533c0,5.279-4.319,9.599-9.599,9.599h-73.533
			c-5.28,0-9.599-4.319-9.599-9.599V13.614C204.775,8.334,209.094,4.015,214.374,4.015z" clip-rule="evenodd"/><path fill="#60b7ff" fill-rule="evenodd" d="M251.14,4.015h36.767c5.28,0,9.599,4.319,9.599,9.599v73.533c0,5.279-4.319,9.599-9.599,9.599H251.14V4.015z" clip-rule="evenodd"/><path fill="#eceff1" fill-rule="evenodd" d="M225.924,54.135c-3.124-3.124-3.124-8.189,0-11.313c3.124-3.124,8.189-3.124,11.313,0l9.834,9.834
			l17.412-21.525c2.779-3.434,7.815-3.966,11.25-1.187c3.434,2.778,3.966,7.815,1.187,11.25l-22.964,28.389
			c-0.185,0.232-0.385,0.457-0.6,0.671c-3.124,3.124-8.189,3.124-11.313,0L225.924,54.135z" clip-rule="evenodd"/></svg>